<svg xmlns="http://www.w3.org/2000/svg" viewBox="0 0 151.64 118.19"><defs><style>.cls-1{fill:none;stroke:#fec881;stroke-miterlimit:10;stroke-width:0.83px;}.cls-2{fill:#fec881;}</style></defs><g id="Layer_2" data-name="Layer 2"><g id="PRINT_1" data-name="PRINT 1"><path class="cls-1" d="M80.93,2.75c.38,1-.2,2.75-1.88,2.19-2-.65-1.41-3.57.4-4.29S83.39.9,84,3.58"/><path class="cls-1" d="M86,6.26a1.7,1.7,0,0,0,.48,2.6c2.12,1.24,4.69-2,3.06-4.11S84.73,2,82.73,5.07s.54,6.91,4.48,7.47c4.43.64,6.85,3.3,5.45,4.7s-4.15-1.52-4-4.08c.15-3.52,6.84-2.72,7.81,1.86s1,9,3.86,9.69,3.56-2.76,1.46-2.95"/><circle class="cls-2" cx="80.58" cy="2.92" r="0.86"/><path class="cls-2" d="M86.9,7.16a.87.87,0,1,0-1.23,0A.87.87,0,0,0,86.9,7.16Z"/><path class="cls-2" d="M102.29,22.77a.87.87,0,0,0,0-1.23.86.86,0,0,0-1.22,0,.87.87,0,0,0,0,1.23A.86.86,0,0,0,102.29,22.77Z"/><path class="cls-1" d="M71.57,2.75c-.39,1,.19,2.75,1.87,2.19,2-.65,1.41-3.57-.4-4.29S69.1.9,68.52,3.58"/><path class="cls-1" d="M66.45,6.26A1.7,1.7,0,0,1,66,8.86c-2.12,1.24-4.69-2-3.06-4.11s4.85-2.79,6.85.32-.54,6.91-4.48,7.47c-4.43.64-6.85,3.3-5.45,4.7s4.15-1.52,4-4.08C63.71,9.64,57,10.44,56.05,15s-1,9-3.86,9.69S48.63,22,50.73,21.76"/><circle class="cls-2" cx="71.91" cy="2.92" r="0.86"/><path class="cls-2" d="M65.59,7.16a.87.87,0,1,1,1.23,0A.87.87,0,0,1,65.59,7.16Z"/><path class="cls-2" d="M50.2,22.77a.87.87,0,0,1,0-1.23.86.86,0,0,1,1.22,0,.87.87,0,0,1,0,1.23A.86.86,0,0,1,50.2,22.77Z"/><path class="cls-1" d="M66.25,22.18c1.26.12,3.76-2.78.89-4.16-3.58-1.73-6.18,4-2.55,6s11,.65,11.41-5.62c.4-5.83-3.79-5.18-4.71-3.7s-.15,3.93,2.45,3"/><path class="cls-2" d="M65.64,22.42a.89.89,0,0,1,0-1.26.9.9,0,0,1,1.27,0,.89.89,0,0,1,0,1.26A.9.9,0,0,1,65.64,22.42Z"/><path class="cls-2" d="M85.64,22.42a.89.89,0,0,1,0-1.26.9.9,0,0,1,1.27,0,.89.89,0,0,1,0,1.26A.9.9,0,0,1,85.64,22.42Z"/><circle class="cls-2" cx="73.59" cy="17.22" r="0.9"/><circle class="cls-2" cx="78.93" cy="17.22" r="0.9"/><path class="cls-1" d="M86.24,22.18C85,22.3,82.48,19.4,85.35,18c3.59-1.73,6.18,4,2.55,6s-11,.65-11.41-5.62c-.4-5.83,3.79-5.18,4.72-3.7s.14,3.93-2.46,3"/><path class="cls-1" d="M77.88,10.5c0,1.35-1.63,2.37-1.63,2.37s-1.64-1.13-1.64-2.37c0-1.69,1.64-3.95,1.64-3.95S77.88,9,77.88,10.5Z"/><path class="cls-1" d="M70.71,115.44c-.38-1,.19-2.75,1.88-2.2,2,.66,1.41,3.58-.4,4.29s-3.94-.25-4.53-2.93"/><path class="cls-1" d="M65.6,111.92a1.68,1.68,0,0,0-.49-2.59c-2.12-1.25-4.69,2-3.06,4.1s4.86,2.79,6.85-.31-.54-6.91-4.47-7.48c-4.44-.63-6.86-3.3-5.46-4.7s4.15,1.52,4,4.08c-.16,3.53-6.85,2.72-7.81-1.86s-1-9-3.87-9.69-3.55,2.77-1.46,3"/><circle class="cls-2" cx="71.05" cy="115.26" r="0.86"/><path class="cls-2" d="M64.73,111A.87.87,0,1,0,66,111,.89.89,0,0,0,64.73,111Z"/><path class="cls-2" d="M49.34,95.42a.87.87,0,1,0,1.23,0A.87.87,0,0,0,49.34,95.42Z"/><path class="cls-1" d="M80.07,115.44c.38-1-.19-2.75-1.88-2.2-2,.66-1.41,3.58.4,4.29s3.94-.25,4.53-2.93"/><path class="cls-1" d="M85.18,111.92a1.68,1.68,0,0,1,.49-2.59c2.12-1.25,4.69,2,3.06,4.1s-4.86,2.79-6.85-.31.54-6.91,4.47-7.48c4.44-.63,6.86-3.3,5.46-4.7s-4.15,1.52-4,4.08c.16,3.53,6.85,2.72,7.81-1.86s1-9,3.87-9.69,3.55,2.77,1.46,3"/><circle class="cls-2" cx="79.73" cy="115.26" r="0.86"/><path class="cls-2" d="M86.05,111a.87.87,0,1,1-1.23,0A.89.89,0,0,1,86.05,111Z"/><path class="cls-2" d="M101.44,95.42a.87.87,0,1,1-1.23,0A.87.87,0,0,1,101.44,95.42Z"/><path class="cls-1" d="M85.38,96c-1.26-.11-3.76,2.78-.88,4.17,3.58,1.73,6.18-4,2.54-6s-11-.66-11.4,5.61c-.4,5.83,3.79,5.18,4.71,3.71s.15-3.93-2.46-3"/><path class="cls-2" d="M86,95.76A.9.9,0,0,1,86,97a.89.89,0,0,1-1.26,0,.9.9,0,0,1,0-1.27A.89.89,0,0,1,86,95.76Z"/><path class="cls-2" d="M66,95.76A.9.9,0,0,1,66,97a.89.89,0,0,1-1.26,0,.9.9,0,0,1,0-1.27A.89.89,0,0,1,66,95.76Z"/><circle class="cls-2" cx="78.05" cy="100.96" r="0.9"/><circle class="cls-2" cx="72.7" cy="100.96" r="0.9"/><path class="cls-1" d="M65.4,96c1.26-.11,3.76,2.78.88,4.17-3.58,1.73-6.18-4-2.55-6s11-.66,11.41,5.61c.4,5.83-3.79,5.18-4.71,3.71s-.15-3.93,2.46-3"/><path class="cls-1" d="M73.76,107.68c0-1.34,1.63-2.37,1.63-2.37S77,106.45,77,107.68c0,1.69-1.63,4-1.63,4S73.76,109.16,73.76,107.68Z"/><path class="cls-1" d="M129.24,26.17c-.42,1-2.08,1.81-2.88.22-.94-1.86,1.53-3.52,3.32-2.75s2.61,3,1.13,5.27"/><path class="cls-1" d="M130.37,32.27a1.69,1.69,0,0,0-1.49,2.18c.62,2.37,4.72,1.91,5.07-.75s-1.47-5.4-5.07-4.61-4.51,5.27-2.12,8.45c2.68,3.58,2.51,7.18.53,7.18s-1.86-4,0-5.74c2.6-2.39,6.77,2.92,4.21,6.84s-5.63,7-4.12,9.58,4.47.56,3.12-1"/><path class="cls-2" d="M128.88,26.91a.86.86,0,1,0-.86-.86A.87.87,0,0,0,128.88,26.91Z"/><path class="cls-2" d="M130.35,33.51a.87.87,0,0,0,0-1.73.87.87,0,1,0,0,1.73Z"/><path class="cls-2" d="M130.2,55.43a.87.87,0,1,0-.87-.86A.87.87,0,0,0,130.2,55.43Z"/><path class="cls-1" d="M122.62,19.55c-1,.42-1.81,2.08-.22,2.88,1.86.94,3.52-1.53,2.75-3.32s-3-2.61-5.27-1.13"/><path class="cls-1" d="M116.52,18.42a1.69,1.69,0,0,1-2.18,1.49c-2.37-.62-1.91-4.72.75-5.07s5.4,1.47,4.61,5.07-5.27,4.51-8.45,2.12c-3.58-2.68-7.18-2.51-7.18-.53s4,1.86,5.74,0c2.39-2.6-2.91-6.76-6.84-4.21s-7,5.63-9.58,4.12-.56-4.47,1-3.12"/><path class="cls-2" d="M121.88,19.91a.86.86,0,1,1,.86.86A.86.86,0,0,1,121.88,19.91Z"/><path class="cls-2" d="M115.28,18.44a.87.87,0,0,1,1.73,0,.87.87,0,1,1-1.73,0Z"/><path class="cls-2" d="M93.36,18.6a.87.87,0,1,1,.87.86A.87.87,0,0,1,93.36,18.6Z"/><path class="cls-1" d="M105.12,29.53c.81,1,4.63.7,3.57-2.32-1.31-3.75-7.21-1.52-6,2.42s7.3,8.23,12,4.1c4.4-3.84,1-6.35-.72-6s-2.88,2.67-.35,3.83"/><path class="cls-2" d="M104.52,29.27a.9.9,0,1,1,.9.9A.89.89,0,0,1,104.52,29.27Z"/><path class="cls-2" d="M118.66,43.41a.9.9,0,1,1,.9.9A.89.89,0,0,1,118.66,43.41Z"/><path class="cls-2" d="M112.92,31.21a.9.9,0,1,1,.9.9A.89.89,0,0,1,112.92,31.21Z"/><path class="cls-2" d="M116.7,35a.9.9,0,1,1,.9.9A.89.89,0,0,1,116.7,35Z"/><path class="cls-1" d="M119.26,43.67c-1-.81-.7-4.63,2.32-3.57,3.75,1.31,1.52,7.21-2.42,6s-8.23-7.3-4.09-12c3.83-4.4,6.34-1,6,.72s-2.67,2.88-3.83.35"/><path class="cls-1" d="M121.6,29.5c-.95.95-2.83.52-2.83.52s-.35-2,.53-2.83c1.19-1.2,4-1.65,4-1.65S122.65,28.45,121.6,29.5Z"/><path class="cls-1" d="M22.39,26.86c.42,1,2.08,1.81,2.88.23.95-1.87-1.53-3.53-3.31-2.75s-2.61,3-1.13,5.27"/><path class="cls-1" d="M21.26,33a1.69,1.69,0,0,1,1.49,2.18c-.61,2.38-4.71,1.92-5.06-.74s1.46-5.4,5.06-4.62,4.51,5.27,2.13,8.45c-2.69,3.59-2.52,7.18-.54,7.18s1.86-4,0-5.74c-2.6-2.38-6.76,2.92-4.21,6.84s5.63,7.05,4.12,9.59-4.47.56-3.12-1.06"/><path class="cls-2" d="M22.76,27.61a.86.86,0,1,1,.86-.86A.86.86,0,0,1,22.76,27.61Z"/><path class="cls-2" d="M21.29,34.21a.87.87,0,1,1,.87-.87A.87.87,0,0,1,21.29,34.21Z"/><path class="cls-2" d="M21.44,56.13a.87.87,0,1,1,.87-.87A.87.87,0,0,1,21.44,56.13Z"/><path class="cls-1" d="M29,20.25c1,.41,1.81,2.08.23,2.88-1.87.94-3.53-1.54-2.75-3.32s3-2.61,5.27-1.13"/><path class="cls-1" d="M35.11,19.11a1.69,1.69,0,0,0,2.18,1.5c2.38-.62,1.92-4.72-.74-5.07s-5.4,1.46-4.62,5.07,5.27,4.5,8.45,2.12c3.59-2.68,7.18-2.51,7.18-.53s-4,1.86-5.74,0c-2.38-2.6,2.92-6.76,6.84-4.21s7.05,5.63,9.58,4.13S58.8,17.6,57.19,19"/><path class="cls-2" d="M29.75,20.61a.86.86,0,1,0-.85.86A.86.86,0,0,0,29.75,20.61Z"/><path class="cls-2" d="M36.36,19.14a.87.87,0,1,0-.87.87A.87.87,0,0,0,36.36,19.14Z"/><path class="cls-2" d="M58.28,19.29a.87.87,0,1,0-.87.87A.87.87,0,0,0,58.28,19.29Z"/><path class="cls-1" d="M46.51,30.23c-.81,1-4.62.7-3.57-2.32,1.31-3.75,7.22-1.52,6,2.41s-7.29,8.23-12,4.1c-4.41-3.84-1-6.34.71-6s2.88,2.67.35,3.83"/><path class="cls-2" d="M47.11,30a.9.9,0,1,0-.89.89A.89.89,0,0,0,47.11,30Z"/><circle class="cls-2" cx="32.08" cy="44.11" r="0.9"/><circle class="cls-2" cx="37.82" cy="31.91" r="0.9"/><circle class="cls-2" cx="34.04" cy="35.69" r="0.9"/><path class="cls-1" d="M32.38,44.36c1-.81.69-4.62-2.32-3.57-3.76,1.31-1.52,7.22,2.41,6s8.23-7.3,4.1-12c-3.84-4.4-6.34-1-5.95.71s2.67,2.89,3.83.36"/><path class="cls-1" d="M30,30.19c.95.95,2.83.52,2.83.52s.36-1.95-.52-2.83c-1.19-1.19-4-1.64-4-1.64S29,29.15,30,30.19Z"/><path class="cls-1" d="M22.39,92c.42-1,2.08-1.81,2.88-.23.95,1.87-1.53,3.53-3.31,2.75s-2.61-3-1.13-5.27"/><path class="cls-1" d="M21.26,85.92a1.69,1.69,0,0,0,1.49-2.18c-.61-2.38-4.71-1.92-5.06.74s1.46,5.4,5.06,4.62,4.51-5.27,2.13-8.45c-2.69-3.59-2.52-7.18-.54-7.18s1.86,4,0,5.74c-2.6,2.38-6.76-2.92-4.21-6.84s5.63-7.05,4.12-9.58-4.47-.56-3.12,1.05"/><path class="cls-2" d="M22.76,91.28a.86.86,0,1,0,.86.86A.85.85,0,0,0,22.76,91.28Z"/><path class="cls-2" d="M21.29,84.67a.87.87,0,1,0,.87.87A.87.87,0,0,0,21.29,84.67Z"/><path class="cls-2" d="M21.44,62.75a.87.87,0,1,0,.87.87A.87.87,0,0,0,21.44,62.75Z"/><path class="cls-1" d="M29,98.64c1-.42,1.81-2.08.23-2.88-1.87-.94-3.53,1.53-2.75,3.31s3,2.62,5.27,1.13"/><path class="cls-1" d="M35.11,99.77a1.69,1.69,0,0,1,2.18-1.49c2.38.61,1.92,4.71-.74,5.06s-5.4-1.46-4.62-5.06,5.27-4.51,8.45-2.13c3.59,2.69,7.18,2.52,7.18.54s-4-1.86-5.74,0c-2.38,2.6,2.92,6.76,6.84,4.21s7.05-5.63,9.58-4.12.56,4.47-1.05,3.12"/><path class="cls-2" d="M29.75,98.27a.86.86,0,1,1-.85-.86A.85.85,0,0,1,29.75,98.27Z"/><path class="cls-2" d="M36.36,99.74a.87.87,0,1,1-.87-.87A.87.87,0,0,1,36.36,99.74Z"/><path class="cls-2" d="M58.28,99.59a.87.87,0,1,1-.87-.87A.87.87,0,0,1,58.28,99.59Z"/><path class="cls-1" d="M46.51,88.65c-.81-1-4.62-.69-3.57,2.32,1.31,3.76,7.22,1.52,6-2.41s-7.29-8.23-12-4.1c-4.41,3.84-1,6.34.71,6s2.88-2.67.35-3.83"/><path class="cls-2" d="M47.11,88.91a.9.9,0,1,1-.89-.89A.89.89,0,0,1,47.11,88.91Z"/><path class="cls-2" d="M33,74.77a.9.9,0,1,1-.89-.89A.89.89,0,0,1,33,74.77Z"/><circle class="cls-2" cx="37.82" cy="86.97" r="0.9"/><path class="cls-2" d="M34.93,83.19A.9.9,0,1,1,34,82.3.89.89,0,0,1,34.93,83.19Z"/><path class="cls-1" d="M32.38,74.52c1,.81.69,4.62-2.32,3.57-3.76-1.31-1.52-7.22,2.41-6s8.23,7.29,4.1,12c-3.84,4.41-6.34,1-5.95-.71s2.67-2.88,3.83-.35"/><path class="cls-1" d="M30,88.69c.95-1,2.83-.52,2.83-.52s.36,2-.52,2.83c-1.19,1.19-4,1.64-4,1.64S29,89.73,30,88.69Z"/><path class="cls-1" d="M129.24,91.32c-.42-1-2.08-1.81-2.88-.22-.94,1.86,1.53,3.52,3.32,2.75s2.61-3,1.13-5.27"/><path class="cls-1" d="M130.37,85.22A1.69,1.69,0,0,1,128.88,83c.62-2.37,4.72-1.91,5.07.74s-1.47,5.41-5.07,4.62-4.51-5.27-2.12-8.45c2.68-3.58,2.51-7.18.53-7.18s-1.86,4,0,5.74c2.6,2.39,6.77-2.92,4.21-6.84s-5.63-7-4.12-9.58,4.47-.56,3.12,1"/><path class="cls-2" d="M128.88,90.58a.86.86,0,1,1-.86.86A.86.86,0,0,1,128.88,90.58Z"/><path class="cls-2" d="M130.35,84a.87.87,0,1,1-.87.87A.86.86,0,0,1,130.35,84Z"/><path class="cls-2" d="M130.2,62.06a.87.87,0,0,1,0,1.73.87.87,0,1,1,0-1.73Z"/><path class="cls-1" d="M122.62,97.94c-1-.42-1.81-2.08-.22-2.88,1.86-.94,3.52,1.53,2.75,3.32s-3,2.61-5.27,1.13"/><path class="cls-1" d="M116.52,99.07a1.69,1.69,0,0,0-2.18-1.49c-2.37.62-1.91,4.72.75,5.06s5.4-1.46,4.61-5.06-5.27-4.51-8.45-2.12c-3.58,2.68-7.18,2.51-7.18.53s4-1.86,5.74,0c2.39,2.6-2.91,6.76-6.84,4.21s-7-5.63-9.58-4.12-.56,4.47,1,3.12"/><path class="cls-2" d="M121.88,97.58a.86.86,0,1,0,.86-.86A.86.86,0,0,0,121.88,97.58Z"/><path class="cls-2" d="M115.28,99.05a.87.87,0,0,0,1.73,0,.87.87,0,1,0-1.73,0Z"/><path class="cls-2" d="M93.36,98.89a.87.87,0,1,0,1.73,0,.87.87,0,0,0-1.73,0Z"/><path class="cls-1" d="M105.12,88c.81-1,4.63-.7,3.57,2.31-1.31,3.76-7.21,1.53-6-2.41s7.3-8.23,12-4.1c4.4,3.84,1,6.34-.72,6s-2.88-2.68-.35-3.83"/><path class="cls-2" d="M104.52,88.22a.9.9,0,1,0,.9-.9A.89.89,0,0,0,104.52,88.22Z"/><circle class="cls-2" cx="119.56" cy="74.07" r="0.9"/><path class="cls-2" d="M112.92,86.27a.9.9,0,1,0,.9-.89A.9.9,0,0,0,112.92,86.27Z"/><circle class="cls-2" cx="117.6" cy="82.5" r="0.9"/><path class="cls-1" d="M119.26,73.82c-1,.81-.7,4.63,2.32,3.57,3.75-1.31,1.52-7.21-2.42-6s-8.23,7.3-4.09,12c3.83,4.4,6.34,1,6-.72s-2.67-2.88-3.83-.35"/><path class="cls-1" d="M121.6,88c-.95-.95-2.83-.52-2.83-.52s-.35,2,.53,2.83c1.19,1.2,4,1.64,4,1.64S122.65,89,121.6,88Z"/><path class="cls-1" d="M135.27,49.1c-.12,1.26,2.78,3.76,4.16.88,1.73-3.58-4-6.18-6-2.54s-.65,11,5.62,11.41c5.83.4,5.18-3.79,3.7-4.72s-3.92-.15-3,2.46"/><circle class="cls-2" cx="135.66" cy="49.12" r="0.9"/><circle class="cls-2" cx="135.66" cy="69.12" r="0.9"/><circle class="cls-2" cx="140.23" cy="56.44" r="0.9"/><circle class="cls-2" cx="140.23" cy="61.78" r="0.9"/><path class="cls-1" d="M135.27,69.09c-.12-1.26,2.78-3.77,4.16-.89,1.73,3.58-4,6.18-6,2.55s-.65-11,5.62-11.41c5.83-.4,5.18,3.79,3.7,4.71s-3.92.15-3-2.46"/><path class="cls-1" d="M147,60.73c-1.35,0-2.37-1.64-2.37-1.64s1.13-1.63,2.37-1.63c1.69,0,4,1.63,4,1.63S148.43,60.73,147,60.73Z"/><path class="cls-1" d="M16.37,69.09c.11-1.26-2.78-3.77-4.17-.89-1.73,3.58,4,6.18,6,2.55s.66-11-5.61-11.41c-5.83-.4-5.18,3.79-3.71,4.71s3.93.15,3-2.46"/><circle class="cls-2" cx="15.97" cy="69.06" r="0.9"/><circle class="cls-2" cx="15.97" cy="49.06" r="0.9"/><circle class="cls-2" cx="11.41" cy="61.75" r="0.9"/><circle class="cls-2" cx="11.41" cy="56.41" r="0.9"/><path class="cls-1" d="M16.37,49.1c.11,1.26-2.78,3.76-4.17.88-1.73-3.58,4-6.18,6-2.54s.66,11-5.61,11.41c-5.83.4-5.18-3.79-3.71-4.72s3.93-.15,3,2.46"/><path class="cls-1" d="M4.69,57.46c1.34,0,2.37,1.63,2.37,1.63s-1.13,1.64-2.37,1.64c-1.69,0-4-1.64-4-1.64S3.21,57.46,4.69,57.46Z"/><path class="cls-1" d="M98.27,106.13c-1-1.9.5-4.6.5-4.6s3.17.35,4.12,2.1c1.29,2.39.71,6.84.71,6.84S99.4,108.21,98.27,106.13Z"/><path class="cls-1" d="M53.36,106.13c1-1.9-.49-4.6-.49-4.6s-3.18.35-4.12,2.1c-1.29,2.39-.72,6.84-.72,6.84S52.23,108.21,53.36,106.13Z"/><path class="cls-1" d="M98.27,12.27c-1,1.9.5,4.6.5,4.6s3.17-.36,4.12-2.11c1.29-2.38.71-6.83.71-6.83S99.4,10.18,98.27,12.27Z"/><path class="cls-1" d="M53.36,12.27c1,1.9-.49,4.6-.49,4.6s-3.18-.36-4.12-2.11C47.46,12.38,48,7.93,48,7.93S52.23,10.18,53.36,12.27Z"/></g></g></svg>