<?xml version="1.0" standalone="no"?>
<!DOCTYPE svg PUBLIC "-//W3C//DTD SVG 20010904//EN"
 "http://www.w3.org/TR/2001/REC-SVG-20010904/DTD/svg10.dtd">
<svg version="1.0" xmlns="http://www.w3.org/2000/svg"
 width="288.000000pt" height="560.000000pt" viewBox="0 0 288.000000 560.000000"
 preserveAspectRatio="xMidYMid meet">
<metadata>
Created by potrace 1.16, written by Peter Selinger 2001-2019
</metadata>
<g transform="translate(0.000000,560.000000) scale(0.100000,-0.100000)"
fill="#000000" stroke="none">
<style type="text/css">
	.st0{fill:#444;}
	
</style>
<path  class="st0" d="M0 5435 c0 -135 3 -165 14 -165 8 0 74 -44 147 -98 227 -167 393
-262 590 -335 199 -75 365 -106 669 -127 293 -21 450 -56 640 -146 324 -153
630 -475 765 -805 18 -44 38 -86 44 -92 8 -8 11 253 11 961 l0 972 -1440 0
-1440 0 0 -165z"/>
</g>
</svg>
