<?xml version="1.0" encoding="utf-8"?>
<!-- Generator: Adobe Illustrator 24.1.2, SVG Export Plug-In . SVG Version: 6.00 Build 0)  -->
<svg version="1.1" id="Layer_1" xmlns="http://www.w3.org/2000/svg" xmlns:xlink="http://www.w3.org/1999/xlink" x="0px" y="0px"
	 viewBox="0 0 288 560" style="enable-background:new 0 0 288 560;" xml:space="preserve">
<style type="text/css">
	.st0{fill:#FDD305;}
	.st1{fill:#FCBF0F;stroke:#000000;stroke-miterlimit:10;}
	.st2{fill:#FCBF0F;}
</style>
<path class="st0" d="M288,204.1c1.4-0.7-9.1-45.5-44.9-77.6c-22.3-20-46-27.7-52.1-29.5c-19.6-5.9-25.3-2.9-76-6
	c-35.4-2.2-53.4-3.4-65-9c-18.3-8.9-31.9-25.8-32.7-26.6C7,43.1,1.5,31.3,0,32c-1.8,0.9,4.6,17.5,6.1,21.1c0.1,0.2,0.1,0.3,0.2,0.5
	C11.1,66,17.6,73.6,17.7,73.5c0.1-0.1-8.4-12.7-8.4-12.7c0,0,2.8,4.2,8.4,12.7l0,0c0,0,9.1,11.5,19.9,20c0,0,6.1,4.9,14.6,9.2
	C73.9,113.7,108,115,108,115c38.5,2.6,57.8,3.9,72,7c15.5,3.4,56.1,12.7,85,45C282.4,186.4,287,204.6,288,204.1z"/>
<path class="st1" d="M-81.6,155.9"/>
<path class="st2" d="M111.3,256"/>
<path class="st2" d="M97.3,310"/>
<path class="st2" d="M170,219"/>
<path class="st2" d="M262,338"/>
<path class="st2" d="M-5,83"/>
<path class="st2" d="M141,181"/>
<path class="st2" d="M189,183"/>
<path class="st2" d="M83,185"/>
<path class="st2" d="M148,168"/>
<path class="st0" d="M103,257"/>
<path class="st0" d="M61,100"/>
<path class="st0" d="M-132,98"/>
<path class="st0" d="M-27,65"/>
<path class="st0" d="M-32,69"/>
<path class="st0" d="M12.4,85.4"/>
<path class="st0" d="M-9.2,59.1"/>
<path class="st0" d="M-70.4,59.1"/>
</svg>
